<?xml version="1.0" encoding="UTF-8"?>
<!DOCTYPE svg PUBLIC "-//W3C//DTD SVG 1.1//EN" "http://www.w3.org/Graphics/SVG/1.1/DTD/svg11.dtd">
<!-- Creator: CorelDRAW 2021 (64-Bit Versión de evaluación) -->
<svg xmlns="http://www.w3.org/2000/svg" xml:space="preserve" width="63.3391mm" height="72.817mm" version="1.1" shape-rendering="geometricPrecision" text-rendering="geometricPrecision" image-rendering="optimizeQuality" fill-rule="evenodd" clip-rule="evenodd"
viewBox="0 0 3868 4446.8"
 xmlns:xlink="http://www.w3.org/1999/xlink"
 xmlns:xodm="http://www.corel.com/coreldraw/odm/2003">
 <g id="Capa_x0020_1">
  <metadata id="CorelCorpID_0Corel-Layer"/>
  <path fill="#DC2626" d="M2098.53 3904.67c-23.66,99.1 -137.35,465.43 -79.58,541.59 85.5,10.61 210.23,-139.85 272.76,-201.56l804.88 -712.78c102.75,-85.71 401.41,-409.47 472.58,-531.93 119.58,-205.81 237.72,-459.96 279.06,-744.78 89.5,-616.7 -136.82,-1220.25 -440.18,-1556.18 -83.29,-92.23 -139.03,-173.23 -241.07,-252.42 -86.68,-67.27 -185.85,-151.73 -300.94,-210.54 -241.79,-123.55 -478.87,-204.39 -793.85,-230.44 -303.35,-25.07 -600.84,36.26 -853.37,132.71 -449.05,171.5 -822.1,538.17 -1039.42,970.81 -246.04,489.8 -229.82,1167.74 -7.43,1675.35 146.95,335.43 417.26,617.11 701.58,813.97 360.45,249.59 769.9,332.71 1224.99,306.2z"/>
  <path fill="#F6F9F9" d="M529.17 999.79c-163.44,202.77 -257.12,549.05 -272.68,865.01 59.88,37.38 404.46,297.78 431.41,333.82 51.03,-49.6 91.86,-111.97 208.14,-115.55 109.3,-3.35 183.43,62.31 210.54,127.02 141.26,-27.52 213.35,0.34 284.92,85.07 71.32,84.41 -4.16,53.47 115.2,87.68 201.07,57.67 163.05,125.84 231.56,186.69 39.16,34.77 104.45,48.42 138.81,79.95 111.97,102.74 31.05,220.9 18.34,330.82 44.1,32.9 118.15,117.98 201.23,68.87 211.01,-125.42 -204.05,-295.02 -140.19,-376.42 15.58,-17.18 -32.64,-41.63 65.81,-24.19 37.39,6.63 170.08,172.79 272.6,242.58 72.69,49.48 112.24,38.89 152.33,-12.15 85.29,-113.1 -74.3,-198.76 -120.68,-240.64 -41.3,-37.28 -53.73,-64.84 -98.92,-100.94 -53.17,-42.51 -96.63,-44.17 -81.84,-119.87 100.65,-40.59 231.02,109.23 291.59,183.52 235.83,289.23 426.87,92.54 256.26,-73.59l-341.86 -298.31c-35.99,-39.75 -35.73,-21.3 -23.19,-86.04 84.82,-32.43 165.26,77.09 220.7,126.22l205.95 178.61c51.94,43.61 143.33,162.8 250.26,80.57 195.96,-150.75 -265.66,-379.68 -477.07,-584.9l-409.91 -359.78c-194.32,-113.07 -447.98,413.12 -727.64,383.9 -91.93,-9.59 -195.02,-84.57 -219.19,-167.6 -36.63,-125.82 55.8,-190.79 108.62,-266.22 141.11,-201.59 119.96,-254.17 340.27,-427.44 77.45,-60.93 165.42,-92.6 225.65,-163.58 -211.69,43.68 -414.61,146.71 -630.13,179.63 -319.19,48.75 -456.02,-100.85 -686.87,-122.74zm338.57 1225.46c-192.27,78.1 -157.09,319.7 13.5,245.01 31.42,-13.76 104.33,-108.52 112.87,-161.7 11.49,-71.51 -60.38,-110.11 -126.37,-83.32zm680.57 756.67c82.54,38.71 125.57,49.96 186.17,-25.54 42.65,-53.15 79.71,-111.2 60.96,-190.03 -223.87,-88.93 -269.25,118.61 -247.12,215.57zm-290.77 -129.83c111.99,49.56 141.65,27.72 206.75,-56.7 47.2,-61.17 118.27,-144.43 124.57,-225.81 -245.59,-142.64 -367.43,159.62 -331.32,282.5zm43.41 -487.61c-205.61,-116.15 -371.93,213.26 -311.9,295.84 75.66,104.18 178.43,-12.02 210.46,-56.71 52.02,-72.64 129.51,-137.56 101.44,-239.14zm23.35 -623.8c276.91,204.57 598.46,-475.95 858.87,-274.06 113.07,87.64 895.69,772.66 958.49,782.07 76.1,-17.15 389.3,-198.21 471.28,-245.95 25.59,-318.81 -92.92,-627.44 -212.83,-852.94 -188.18,31.96 -466.71,146.64 -653.2,82.66 -194.83,-66.83 -336.99,-210.47 -573.56,-212.4 -164.58,-1.34 -447.08,165.56 -545,240.22 -81.78,62.41 -295.7,441.58 -304.05,480.39z"/>
 </g>
</svg>
